<mxfile host="app.diagrams.net" modified="2023-11-30T08:20:14.751Z" agent="Mozilla/5.0 (Macintosh; Intel Mac OS X 10_15_7) AppleWebKit/537.36 (KHTML, like Gecko) Chrome/119.0.0.0 Safari/537.36" version="22.1.5" etag="ONJ0uhFh9l2AnOuj3A4j" type="github">
  <diagram name="Page-1" id="JwWRan5xJIM3uw28WFCX">
    <mxGraphModel>
      <root>
        <mxCell id="0" />
        <mxCell id="1" parent="0" />
      </root>
    </mxGraphModel>
  </diagram>
</mxfile>
